<svg id="sw-js-blob-svg" viewBox="0 0 100 100" xmlns="http://www.w3.org/2000/svg">                    <defs>                         <linearGradient id="sw-gradient" x1="0" x2="1" y1="1" y2="0">                            <stop id="stop1" stop-color="rgba(248, 117, 55, 1)" offset="0%"></stop>                            <stop id="stop2" stop-color="rgba(251, 31, 31, 1)" offset="100%"></stop>                        </linearGradient>                    </defs>                <path fill="url(#sw-gradient)" d="M13.4,-26.6C17.2,-21.1,19.8,-17,21.7,-12.8C23.5,-8.6,24.6,-4.3,26.5,1.1C28.3,6.5,30.9,12.9,30.8,20.1C30.7,27.3,27.8,35.3,22.2,36.4C16.6,37.5,8.3,31.7,1.9,28.4C-4.6,25.2,-9.2,24.5,-15.5,23.8C-21.8,23.1,-29.8,22.5,-32.9,18.5C-36,14.6,-34.3,7.3,-32.5,1C-30.8,-5.3,-29.1,-10.5,-25.8,-14.2C-22.5,-17.8,-17.5,-19.8,-13,-24.8C-8.4,-29.8,-4.2,-37.9,0.3,-38.5C4.9,-39,9.7,-32.1,13.4,-26.6Z" width="100%" height="100%" transform="translate(50 50)" stroke-width="0" style="transition: all 0.3s ease 0s;" stroke="url(#sw-gradient)"></path>              </svg>